<?xml version="1.0" encoding="UTF-8"?>
<svg width="512" height="512" viewBox="0 0 512 512" fill="none" xmlns="http://www.w3.org/2000/svg">
  <rect width="512" height="512" rx="128" fill="#4B5563"/>
  <path d="M256 128C179.96 128 128 179.96 128 256C128 332.04 179.96 384 256 384C332.04 384 384 332.04 384 256C384 179.96 332.04 128 256 128ZM256 352C197.6 352 160 314.4 160 256C160 197.6 197.6 160 256 160C314.4 160 352 197.6 352 256C352 314.4 314.4 352 256 352Z" fill="white"/>
  <path d="M256 192C229.49 192 208 213.49 208 240V272C208 298.51 229.49 320 256 320C282.51 320 304 298.51 304 272V240C304 213.49 282.51 192 256 192Z" fill="white"/>
</svg> 